{"glyphs":{"0":{"ha":1028,"x_min":0,"x_max":917,"o":"m 917 300 q 894 178 917 233 q 830 83 871 122 q 731 22 789 43 q 606 0 674 0 l 311 0 q 186 21 243 0 q 88 81 129 42 q 23 176 46 121 q 0 300 0 231 q 1 347 0 313 q 1 424 1 382 q 2 507 1 465 q 3 574 3 549 l 4 847 q 24 944 4 899 q 77 1026 43 990 q 156 1084 111 1061 q 253 1111 201 1107 l 664 1111 q 759 1084 714 1107 q 838 1026 804 1061 q 892 944 872 990 q 913 847 913 899 q 913 800 913 835 q 914 724 914 765 q 915 640 914 682 q 915 574 915 599 l 917 300 m 658 774 q 634 838 658 810 q 575 867 610 867 l 342 867 q 283 838 307 867 q 258 774 258 810 l 258 340 q 265 308 258 324 q 281 279 271 292 q 305 258 292 267 q 333 250 318 250 l 582 250 q 636 278 614 250 q 658 340 658 307 l 658 774 z "},"1":{"ha":667,"x_min":0,"x_max":556,"o":"m 556 0 l 278 0 l 278 850 l 124 850 l 0 1111 l 556 1111 l 556 0 z "},"2":{"ha":1006,"x_min":0,"x_max":915,"o":"m 915 0 l 0 0 l 0 250 q 28 374 0 286 q 424 681 131 681 l 561 681 q 635 703 604 681 q 665 767 665 725 q 569 850 665 850 l 100 850 l 100 1111 l 601 1111 q 731 1086 672 1111 q 830 1016 789 1061 q 893 907 871 971 q 915 767 915 843 q 890 628 915 692 q 819 519 865 565 q 710 447 774 472 q 569 421 646 421 l 424 421 q 369 410 394 421 q 323 381 343 400 q 292 338 303 363 q 281 283 281 313 q 285 250 281 267 l 915 250 l 915 0 z "},"3":{"ha":840,"x_min":0,"x_max":739,"o":"m 739 299 q 716 174 739 229 q 653 81 693 119 q 555 21 613 42 q 429 0 497 0 l 0 0 l 0 249 l 407 249 q 435 257 421 249 q 459 278 449 265 q 476 306 469 290 q 482 339 482 322 q 476 372 482 356 q 459 400 469 388 q 435 421 449 413 q 407 429 421 429 l 197 429 l 79 686 l 422 686 q 446 694 435 686 q 465 715 457 703 q 477 743 472 728 q 482 771 482 758 q 458 834 482 806 q 399 863 433 863 l 0 863 l 0 1111 l 449 1111 q 565 1088 513 1111 q 656 1028 618 1065 q 714 942 693 990 q 735 843 735 894 q 699 677 735 751 q 597 569 664 603 q 739 299 739 465 z "},"4":{"ha":1018,"x_min":0,"x_max":926,"o":"m 926 185 l 757 185 l 757 0 l 479 0 l 479 185 l 124 185 l 0 446 l 438 1111 l 757 1111 l 757 446 l 926 446 l 926 185 m 479 446 l 479 707 l 300 446 l 479 446 z "},"5":{"ha":903,"x_min":0,"x_max":811,"o":"m 811 343 q 764 148 811 235 q 632 24 717 61 q 549 0 576 0 l 92 0 l 92 258 l 454 258 q 561 343 561 258 q 529 402 561 378 q 454 426 497 426 l 0 425 l 206 1111 l 811 1111 l 689 853 l 394 853 l 338 685 l 497 685 q 811 356 811 685 l 811 343 z "},"6":{"ha":997,"x_min":0,"x_max":917,"o":"m 917 300 q 894 178 917 233 q 830 83 871 122 q 731 22 789 43 q 606 0 674 0 l 318 0 q 192 22 250 0 q 91 84 133 44 q 24 178 49 124 q 0 300 0 233 l 0 847 q 10 916 0 881 q 40 984 21 951 q 83 1044 58 1017 q 136 1088 107 1071 q 185 1111 176 1111 l 832 1111 l 708 850 l 419 851 q 300 847 322 851 q 256 735 256 832 q 256 709 256 721 q 258 688 257 697 l 606 688 q 917 315 917 688 l 917 300 m 658 340 q 631 415 658 382 q 564 449 604 449 l 364 449 l 258 688 l 258 342 q 350 233 258 233 l 564 233 q 599 243 582 233 q 630 268 617 253 q 651 302 643 283 q 658 340 658 321 z "},"7":{"ha":1001,"x_min":0,"x_max":926,"o":"m 926 1111 l 556 0 l 278 0 l 561 850 l 124 850 l 0 1111 l 926 1111 z "},"8":{"ha":1018,"x_min":0,"x_max":917,"o":"m 917 300 q 894 178 917 233 q 830 83 871 122 q 731 22 789 43 q 606 0 674 0 l 311 0 q 186 21 243 0 q 88 81 129 42 q 23 176 46 121 q 0 300 0 231 q 143 572 0 467 q 40 680 76 606 q 4 847 4 754 q 24 944 4 899 q 76 1024 43 989 q 155 1081 110 1058 q 253 1111 200 1104 l 664 1111 q 758 1083 714 1106 q 838 1025 803 1060 q 892 944 872 990 q 913 847 913 899 q 876 680 913 754 q 774 572 840 606 q 917 300 917 467 m 658 340 q 653 373 658 357 q 638 401 647 389 q 615 422 628 414 q 586 431 601 431 l 454 433 l 331 693 l 614 693 q 645 728 632 703 q 658 774 658 753 q 634 838 658 810 q 575 867 610 867 l 342 867 q 283 838 307 867 q 258 774 258 810 q 273 724 258 750 q 308 692 288 697 l 308 425 q 273 390 288 415 q 258 340 258 364 q 265 308 258 324 q 281 279 271 292 q 305 258 292 267 q 333 250 318 250 l 582 250 q 636 278 614 250 q 658 340 658 307 z "},"9":{"ha":1019,"x_min":0,"x_max":907,"o":"m 907 378 l 899 378 l 899 261 q 888 191 899 226 q 857 123 876 156 q 812 63 838 90 q 756 18 786 36 q 715 0 725 0 l 83 0 l 83 258 l 453 257 q 544 257 513 257 q 583 258 576 257 q 631 291 617 261 q 646 379 646 321 l 654 379 l 654 383 q 653 408 654 397 q 651 431 653 419 l 307 431 q 0 799 0 431 l 0 814 q 23 935 0 881 q 87 1029 46 990 q 184 1090 128 1068 q 307 1111 240 1111 l 592 1111 q 716 1090 658 1111 q 816 1029 774 1068 q 883 935 858 990 q 907 814 907 881 l 907 378 m 651 651 l 651 774 q 560 881 651 881 l 349 881 q 313 869 329 881 q 283 842 296 858 q 263 805 271 825 q 256 767 256 785 q 263 724 256 744 q 283 687 271 703 q 313 661 296 671 q 349 651 329 651 l 651 651 z "}," ":{"ha":694,"x_min":0,"x_max":0,"o":""},"!":{"ha":390,"x_min":0,"x_max":278,"o":"m 278 432 l 0 432 l 0 1111 l 278 1111 l 278 432 m 278 0 l 0 0 l 0 261 l 278 261 l 278 0 z "},"\"":{"ha":517,"x_min":0,"x_max":0,"o":""},"$":{"ha":1008,"x_min":0,"x_max":915,"o":"m 915 349 q 831 92 915 185 q 592 0 747 0 l 592 -87 l 314 -87 l 314 0 l 0 0 l 0 250 l 314 250 l 314 421 q 183 445 242 421 q 85 515 125 469 q 22 624 44 560 q 0 767 0 688 q 22 907 0 843 q 85 1016 44 971 q 185 1086 126 1061 q 314 1111 243 1111 l 314 1190 l 592 1190 l 592 1111 l 915 1111 l 792 850 l 592 850 l 592 681 q 838 601 760 681 q 915 349 915 521 m 314 850 q 250 767 250 836 q 314 685 250 703 l 314 850 m 663 335 q 592 415 663 392 l 592 254 q 663 335 663 271 z "},"'":{"ha":392,"x_min":4,"x_max":272,"o":"m 272 1111 l 149 851 l 4 851 l 4 1111 l 272 1111 z "},"(":{"ha":558,"x_min":0,"x_max":461,"o":"m 461 0 l 449 0 q 329 22 419 0 q 219 72 272 35 q 122 160 165 108 q 50 276 79 213 q 13 406 21 339 q 0 550 0 501 q 33 769 0 669 q 126 944 65 869 q 272 1062 186 1018 q 461 1111 357 1106 l 461 850 l 442 850 q 399 838 422 850 q 356 808 376 826 q 319 767 335 789 q 297 725 303 744 q 272 617 272 635 q 461 261 272 274 l 461 0 z "},")":{"ha":556,"x_min":0,"x_max":461,"o":"m 461 550 q 449 406 461 501 q 412 276 440 339 q 341 160 383 213 q 245 72 299 108 q 133 22 192 35 q 52 5 85 11 q 0 0 19 -1 l 0 261 q 190 617 190 274 q 188 640 190 619 q 178 688 186 660 q 152 749 169 717 q 106 807 135 781 q 21 850 58 850 l 0 850 l 0 1111 q 189 1062 104 1106 q 334 944 274 1018 q 428 769 394 869 q 461 550 461 669 z "},",":{"ha":392,"x_min":0,"x_max":272,"o":"m 272 197 l 149 -61 l 0 -61 l 0 197 l 272 197 z "},"-":{"ha":826,"x_min":0,"x_max":701,"o":"m 701 429 l 0 429 l 0 689 l 701 689 l 701 429 z "},".":{"ha":396,"x_min":0,"x_max":265,"o":"m 265 0 l 0 0 l 0 260 l 265 260 l 265 0 z "},"/":{"ha":1081,"x_min":0,"x_max":1039,"o":"m 1039 1111 l 319 0 l 0 0 l 739 1111 l 1039 1111 z "},":":{"ha":371,"x_min":0,"x_max":260,"o":"m 260 626 l 0 626 l 0 886 l 260 886 l 260 626 m 260 197 l 0 197 l 0 457 l 260 457 l 260 197 z "},";":{"ha":368,"x_min":0,"x_max":272,"o":"m 260 626 l 0 626 l 0 886 l 260 886 l 260 626 m 272 461 l 149 203 l 0 203 l 0 461 l 272 461 z "},"=":{"ha":679,"x_min":0,"x_max":588,"o":"m 588 626 l 0 626 l 0 886 l 588 886 l 588 626 m 588 197 l 0 197 l 0 457 l 588 457 l 588 197 z "},"?":{"ha":881,"x_min":0,"x_max":815,"o":"m 815 767 q 790 628 815 692 q 719 519 765 565 q 610 447 674 472 q 469 421 546 421 q 393 419 465 419 q 294 419 349 419 q 176 421 240 419 l 176 681 l 461 681 q 535 703 504 681 q 565 767 565 725 q 469 850 565 850 l 0 850 l 0 1111 l 501 1111 q 631 1086 572 1111 q 730 1016 689 1061 q 793 907 771 971 q 815 767 815 843 m 454 0 l 176 0 l 176 250 l 454 250 l 454 0 z "},"A":{"ha":1093,"x_min":0,"x_max":1018,"o":"m 1018 0 l 740 0 l 674 201 l 494 201 l 407 386 l 278 0 l 0 0 l 371 1111 l 649 1111 l 1018 0 m 586 463 l 510 694 l 432 463 l 586 463 z "},"B":{"ha":1040,"x_min":0,"x_max":939,"o":"m 939 299 q 916 174 939 229 q 853 81 893 119 q 755 21 813 42 q 629 0 697 0 l 0 0 l 0 1111 l 649 1111 q 642 1110 642 1111 q 663 1106 642 1110 q 710 1096 685 1101 q 755 1087 735 1090 q 772 1085 775 1083 q 835 1044 806 1069 q 888 985 865 1018 q 922 917 910 953 q 935 843 935 881 q 899 677 935 751 q 797 569 864 603 q 939 299 939 465 m 682 771 q 658 834 682 806 q 599 863 633 863 l 268 863 l 268 686 l 622 686 q 646 694 635 686 q 665 715 657 703 q 677 743 672 728 q 682 771 682 758 m 682 339 q 676 372 682 356 q 659 400 669 388 q 635 421 649 413 q 607 429 621 429 l 397 429 l 268 625 l 268 249 l 607 249 q 635 257 621 249 q 659 278 649 265 q 676 306 669 290 q 682 339 682 322 z "},"C":{"ha":971,"x_min":0,"x_max":924,"o":"m 924 1111 l 796 850 l 442 850 q 399 838 422 850 q 356 808 376 826 q 319 767 335 789 q 297 725 303 744 q 272 617 272 638 q 475 261 272 261 l 922 261 l 922 0 l 449 0 q 406 6 436 0 q 329 22 376 11 q 217 72 271 35 q 122 162 164 110 q 50 277 79 214 q 13 406 21 340 q 0 550 0 501 q 35 778 0 675 q 135 956 71 882 q 290 1070 200 1029 q 492 1111 381 1111 l 924 1111 z "},"D":{"ha":1017,"x_min":0,"x_max":924,"o":"m 924 550 q 899 366 924 454 q 832 207 875 278 q 728 88 789 136 q 594 22 667 39 q 475 0 504 0 l 0 0 l 0 1111 l 432 1111 q 633 1069 542 1111 q 788 953 724 1028 q 888 776 853 879 q 924 550 924 672 m 651 617 q 649 640 651 619 q 639 688 647 660 q 614 749 631 717 q 568 807 597 781 q 482 850 521 850 l 276 850 l 276 261 l 447 261 q 651 617 651 261 z "},"E":{"ha":879,"x_min":0,"x_max":824,"o":"m 824 1111 l 700 851 l 4 851 l 4 1111 l 824 1111 m 701 429 l 4 429 l 4 689 l 701 689 l 701 429 m 767 0 l 0 0 l 0 260 l 767 260 l 767 0 z "},"F":{"ha":876,"x_min":0,"x_max":829,"o":"m 829 1111 l 704 850 l 278 850 l 278 688 l 706 688 l 706 425 l 278 425 l 278 0 l 0 0 l 0 1111 l 829 1111 z "},"G":{"ha":1010,"x_min":0,"x_max":924,"o":"m 924 626 l 924 0 l 449 0 q 406 6 436 0 q 329 22 376 11 q 217 73 271 36 q 122 161 164 110 q 51 276 79 213 q 13 406 22 339 q 0 550 0 499 q 35 778 0 675 q 135 955 71 881 q 290 1070 200 1029 q 492 1111 381 1111 l 924 1111 l 796 850 l 442 850 q 399 838 422 850 q 356 808 376 826 q 319 767 335 789 q 297 725 303 744 q 272 617 272 643 q 475 261 272 261 l 646 261 l 646 365 l 501 365 l 378 626 l 924 626 z "},"H":{"ha":990,"x_min":0,"x_max":879,"o":"m 879 0 l 618 0 l 618 604 l 510 426 l 254 426 l 254 0 l 0 0 l 0 1111 l 258 1111 l 258 685 l 619 685 l 619 1111 l 879 1111 l 879 0 z "},"I":{"ha":389,"x_min":0,"x_max":278,"o":"m 278 0 l 0 0 l 0 1111 l 278 1111 l 278 0 z "},"J":{"ha":740,"x_min":0,"x_max":636,"o":"m 636 407 q 610 311 636 376 q 318 22 515 69 q 241 6 271 11 q 199 0 211 0 l 0 0 l 0 261 l 171 261 q 322 339 271 261 q 374 551 374 417 l 374 1111 l 636 1111 l 636 407 z "},"K":{"ha":1021,"x_min":1,"x_max":943,"o":"m 943 0 l 644 0 l 288 554 l 624 1108 l 943 1108 l 589 554 l 943 0 m 263 1 l 1 1 l 1 1113 l 263 1113 l 263 1 z "},"L":{"ha":808,"x_min":0,"x_max":771,"o":"m 771 0 l 0 0 l 0 1111 l 278 1111 l 278 261 l 771 261 l 771 0 z "},"M":{"ha":1315,"x_min":0,"x_max":1204,"o":"m 1204 0 l 926 0 l 926 556 l 740 0 l 463 0 l 278 556 l 278 0 l 0 0 l 0 1111 l 371 1111 l 601 417 l 833 1111 l 1204 1111 l 1204 0 z "},"N":{"ha":1103,"x_min":0,"x_max":992,"o":"m 992 0 l 696 0 l 274 665 l 274 0 l 0 0 l 0 1111 l 307 1111 l 718 444 l 718 1111 l 992 1111 l 992 0 z "},"O":{"ha":1100,"x_min":0,"x_max":1004,"o":"m 1004 557 q 969 334 1004 436 q 867 158 933 232 q 710 42 801 83 q 506 0 618 0 q 300 40 393 0 q 140 154 207 81 q 37 329 74 228 q 0 554 0 431 q 38 778 0 676 q 142 954 75 881 q 304 1069 210 1028 q 511 1111 399 1111 q 713 1069 622 1111 q 869 953 804 1028 q 969 778 933 879 q 1004 557 1004 676 m 760 554 q 742 674 760 618 q 690 772 724 731 q 611 838 657 814 q 510 863 565 863 q 406 840 453 863 q 327 775 360 817 q 277 676 294 733 q 260 550 260 618 q 278 429 260 485 q 328 333 296 374 q 406 268 361 292 q 506 244 451 244 q 608 269 561 244 q 689 335 656 293 q 741 433 722 376 q 760 554 760 489 z "},"P":{"ha":976,"x_min":0,"x_max":911,"o":"m 911 747 q 899 626 911 679 q 860 532 886 574 q 793 459 833 490 q 699 403 753 428 q 693 399 696 401 q 685 393 690 396 l 371 392 l 263 557 l 263 0 l 0 0 l 0 1111 l 597 1111 q 722 1081 664 1111 q 821 1001 779 1051 q 887 885 863 951 q 911 747 911 819 m 661 738 q 631 818 661 783 q 556 853 600 853 l 261 853 l 261 624 l 567 624 q 602 635 585 624 q 633 663 619 646 q 653 699 646 679 q 661 738 661 719 z "},"Q":{"ha":1118,"x_min":0,"x_max":1024,"o":"m 1024 11 l 728 11 l 708 40 q 506 0 613 0 q 300 40 393 0 q 140 154 207 81 q 37 329 74 228 q 0 554 0 431 q 38 778 0 676 q 142 954 75 881 q 304 1069 210 1028 q 511 1111 399 1111 q 713 1069 622 1111 q 869 953 804 1028 q 969 778 933 879 q 1004 557 1004 676 q 903 207 1004 354 l 1024 11 m 760 554 q 742 674 760 618 q 690 772 724 731 q 611 838 657 814 q 510 863 565 863 q 406 840 453 863 q 327 775 360 817 q 277 676 294 733 q 260 550 260 618 q 278 429 260 485 q 328 333 296 374 q 406 268 361 292 q 506 244 451 244 q 569 253 538 244 l 367 561 l 683 561 l 747 457 q 760 554 760 504 z "},"R":{"ha":1026,"x_min":0,"x_max":926,"o":"m 926 0 l 628 0 l 263 557 l 263 0 l 0 0 l 0 1111 l 597 1111 q 722 1081 664 1111 q 821 1001 779 1051 q 887 885 863 951 q 911 747 911 819 q 899 626 911 679 q 860 532 886 574 q 793 459 833 490 q 699 403 753 428 q 693 399 696 401 q 685 393 690 396 l 926 0 m 661 738 q 631 818 661 783 q 556 853 600 853 l 261 853 l 261 624 l 567 624 q 602 635 585 624 q 633 663 619 646 q 653 699 646 679 q 661 738 661 719 z "},"S":{"ha":1000,"x_min":0,"x_max":915,"o":"m 915 349 q 893 205 915 269 q 830 94 871 140 q 730 24 789 49 q 597 0 671 0 l 0 0 l 0 250 l 554 250 q 633 273 603 250 q 663 335 663 296 q 635 391 663 367 q 554 421 607 415 q 529 419 544 419 q 493 419 514 419 l 378 419 q 247 428 300 419 q 156 453 193 436 q 93 499 118 471 q 47 568 68 528 q 0 767 0 653 q 22 907 0 843 q 85 1016 44 971 q 185 1086 126 1061 q 314 1111 243 1111 l 915 1111 l 792 850 l 344 853 q 250 767 250 853 q 278 705 250 729 q 344 681 307 681 l 597 681 q 915 349 915 681 z "},"T":{"ha":986,"x_min":0,"x_max":933,"o":"m 933 1111 l 806 854 l 563 854 l 563 0 l 297 0 l 297 854 l 0 854 l 0 1111 l 933 1111 z "},"U":{"ha":1018,"x_min":0,"x_max":914,"o":"m 914 407 q 888 311 914 376 q 710 74 822 149 q 463 0 597 0 q 25 311 144 0 q 0 407 0 375 l 0 1111 l 261 1111 l 261 551 q 313 340 261 418 q 457 261 364 261 q 601 339 550 261 q 651 551 651 417 l 651 1111 l 914 1111 l 914 407 z "},"V":{"ha":1094,"x_min":0,"x_max":1018,"o":"m 1018 1111 l 649 0 l 371 0 l 0 1111 l 278 1111 l 510 417 l 740 1111 l 1018 1111 z "},"W":{"ha":1835,"x_min":0,"x_max":1760,"o":"m 1760 1111 l 1389 0 l 1111 0 l 879 694 l 649 0 l 371 0 l 0 1111 l 278 1111 l 510 417 l 740 1111 l 1018 1111 l 1250 417 l 1482 1111 l 1760 1111 z "},"X":{"ha":1115,"x_min":0,"x_max":1039,"o":"m 1039 0 l 739 0 l 526 319 l 319 0 l 0 0 l 369 556 l 0 1111 l 319 1111 l 526 792 l 739 1111 l 1039 1111 l 679 556 l 1039 0 z "},"Y":{"ha":1094,"x_min":0,"x_max":1039,"o":"m 1039 1111 l 658 556 l 658 0 l 381 0 l 381 556 l 0 1111 l 319 1111 l 526 792 l 739 1111 l 1039 1111 z "},"Z":{"ha":1011,"x_min":0,"x_max":926,"o":"m 926 0 l 0 0 l 0 261 l 556 850 l 0 850 l 0 1111 l 926 1111 l 926 840 l 371 261 l 926 261 l 926 0 z "},"[":{"ha":528,"x_min":0,"x_max":432,"o":"m 432 0 l 0 0 l 0 1111 l 432 1111 l 432 850 l 278 850 l 278 261 l 432 261 l 432 0 z "},"\\":{"ha":1078,"x_min":0,"x_max":1039,"o":"m 1039 0 l 739 0 l 0 1111 l 319 1111 l 1039 0 z "},"]":{"ha":543,"x_min":0,"x_max":432,"o":"m 432 0 l 0 0 l 0 261 l 154 261 l 154 850 l 0 850 l 0 1111 l 432 1111 l 432 0 z "},"a":{"ha":1038,"x_min":0,"x_max":926,"o":"m 926 0 l 478 0 l 383 194 l 278 0 l 0 0 l 600 1111 l 926 1111 l 926 0 m 649 254 l 649 686 l 415 254 l 649 254 z "},"b":{"ha":1044,"x_min":0,"x_max":939,"o":"m 939 299 q 916 174 939 229 q 853 81 893 119 q 755 21 813 42 q 629 0 697 0 l 0 0 l 0 1111 l 649 1111 q 642 1110 642 1111 q 663 1106 642 1110 q 710 1096 685 1101 q 755 1087 735 1090 q 772 1085 775 1083 q 835 1044 806 1069 q 888 985 865 1018 q 922 917 910 953 q 935 843 935 881 q 899 677 935 751 q 797 569 864 603 q 939 299 939 465 m 682 771 q 658 834 682 806 q 599 863 633 863 l 268 863 l 268 686 l 622 686 q 646 694 635 686 q 665 715 657 703 q 677 743 672 728 q 682 771 682 758 m 682 339 q 676 372 682 356 q 659 400 669 388 q 635 421 649 413 q 607 429 621 429 l 397 429 l 268 625 l 268 249 l 607 249 q 635 257 621 249 q 659 278 649 265 q 676 306 669 290 q 682 339 682 322 z "},"c":{"ha":971,"x_min":0,"x_max":924,"o":"m 924 1111 l 796 850 l 442 850 q 399 838 422 850 q 356 808 376 826 q 319 767 335 789 q 297 725 303 744 q 272 617 272 638 q 475 261 272 261 l 922 261 l 922 0 l 449 0 q 406 6 436 0 q 329 22 376 11 q 217 72 271 35 q 122 162 164 110 q 50 277 79 214 q 13 406 21 340 q 0 550 0 501 q 35 778 0 675 q 135 956 71 882 q 290 1070 200 1029 q 492 1111 381 1111 l 924 1111 z "},"d":{"ha":1017,"x_min":0,"x_max":924,"o":"m 924 550 q 899 366 924 454 q 832 207 875 278 q 728 88 789 136 q 594 22 667 39 q 475 0 504 0 l 0 0 l 0 1111 l 432 1111 q 633 1069 542 1111 q 788 953 724 1028 q 888 776 853 879 q 924 550 924 672 m 651 617 q 649 640 651 619 q 639 688 647 660 q 614 749 631 717 q 568 807 597 781 q 482 850 521 850 l 276 850 l 276 261 l 447 261 q 651 617 651 261 z "},"e":{"ha":894,"x_min":0,"x_max":824,"o":"m 824 1111 l 700 851 l 276 851 l 276 689 l 701 689 l 701 429 l 276 429 l 276 260 l 767 260 l 767 0 l 0 0 l 0 1111 l 824 1111 z "},"f":{"ha":892,"x_min":4,"x_max":824,"o":"m 824 1111 l 700 851 l 4 851 l 4 1111 l 824 1111 m 701 429 l 4 429 l 4 689 l 701 689 l 701 429 z "},"g":{"ha":1001,"x_min":0,"x_max":924,"o":"m 924 557 l 924 0 l 449 0 q 406 6 436 0 q 329 22 376 11 q 217 72 271 35 q 122 162 164 110 q 50 277 79 214 q 13 406 21 340 q 0 550 0 501 q 35 778 0 675 q 135 956 71 882 q 290 1070 200 1029 q 492 1111 381 1111 l 924 1111 l 796 850 l 442 850 q 399 838 422 850 q 356 808 376 826 q 319 767 335 789 q 297 725 303 744 q 272 617 272 638 q 475 261 272 261 l 646 261 l 646 557 l 924 557 z "},"h":{"ha":990,"x_min":0,"x_max":879,"o":"m 879 0 l 618 0 l 618 604 l 510 426 l 254 426 l 254 0 l 0 0 l 0 1111 l 258 1111 l 258 685 l 619 685 l 619 1111 l 879 1111 l 879 0 z "},"i":{"ha":389,"x_min":0,"x_max":278,"o":"m 278 0 l 0 0 l 0 1111 l 278 1111 l 278 0 z "},"j":{"ha":796,"x_min":0,"x_max":688,"o":"m 688 321 q 663 187 688 246 q 593 86 639 128 q 483 22 547 44 q 340 0 419 0 q 90 83 181 0 q 0 321 0 165 l 264 321 q 287 257 264 282 q 350 232 310 232 q 436 321 436 232 l 436 1111 l 688 1111 l 688 321 z "},"k":{"ha":1021,"x_min":1,"x_max":943,"o":"m 943 0 l 644 0 l 288 554 l 624 1108 l 943 1108 l 589 554 l 943 0 m 263 1 l 1 1 l 1 1113 l 263 1113 l 263 1 z "},"l":{"ha":813,"x_min":0,"x_max":771,"o":"m 771 0 l 0 0 l 0 1111 l 278 1111 l 278 261 l 771 261 l 771 0 z "},"m":{"ha":1500,"x_min":0,"x_max":1389,"o":"m 1389 0 l 1111 0 l 1111 833 l 833 0 l 556 0 l 278 833 l 278 0 l 0 0 l 0 1111 l 463 1111 l 694 417 l 926 1111 l 1389 1111 l 1389 0 z "},"n":{"ha":1033,"x_min":0,"x_max":922,"o":"m 922 0 l 646 0 l 646 104 l 276 679 l 276 4 l 0 4 l 0 1111 l 318 1111 l 646 586 l 646 1107 l 922 1107 l 922 0 z "},"o":{"ha":1100,"x_min":0,"x_max":1004,"o":"m 1004 557 q 969 334 1004 436 q 867 158 933 232 q 710 42 801 83 q 506 0 618 0 q 300 40 393 0 q 140 154 207 81 q 37 329 74 228 q 0 554 0 431 q 38 778 0 676 q 142 954 75 881 q 304 1069 210 1028 q 511 1111 399 1111 q 713 1069 622 1111 q 869 953 804 1028 q 969 778 933 879 q 1004 557 1004 676 m 760 554 q 742 674 760 618 q 690 772 724 731 q 611 838 657 814 q 510 863 565 863 q 406 840 453 863 q 327 775 360 817 q 277 676 294 733 q 260 550 260 618 q 278 429 260 485 q 328 333 296 374 q 406 268 361 292 q 506 244 451 244 q 608 269 561 244 q 689 335 656 293 q 741 433 722 376 q 760 554 760 489 z "},"p":{"ha":992,"x_min":0,"x_max":911,"o":"m 911 747 q 899 626 911 679 q 860 532 886 574 q 793 459 833 490 q 699 403 753 428 q 693 399 696 401 q 685 393 690 396 l 371 392 l 263 557 l 263 0 l 0 0 l 0 1111 l 597 1111 q 722 1081 664 1111 q 821 1001 779 1051 q 887 885 863 951 q 911 747 911 819 m 661 738 q 631 818 661 783 q 556 853 600 853 l 261 853 l 261 624 l 567 624 q 602 635 585 624 q 633 663 619 646 q 653 699 646 679 q 661 738 661 719 z "},"q":{"ha":1125,"x_min":0,"x_max":1024,"o":"m 1024 11 l 728 11 l 708 40 q 506 0 613 0 q 300 40 393 0 q 140 154 207 81 q 37 329 74 228 q 0 554 0 431 q 38 778 0 676 q 142 954 75 881 q 304 1069 210 1028 q 511 1111 399 1111 q 713 1069 622 1111 q 869 953 804 1028 q 969 778 933 879 q 1004 557 1004 676 q 903 207 1004 354 l 1024 11 m 760 554 q 742 674 760 618 q 690 772 724 731 q 611 838 657 814 q 510 863 565 863 q 406 840 453 863 q 327 775 360 817 q 277 676 294 733 q 260 550 260 618 q 278 429 260 485 q 328 333 296 374 q 406 268 361 292 q 506 244 451 244 q 569 253 538 244 l 367 561 l 683 561 l 747 457 q 760 554 760 504 z "},"r":{"ha":1026,"x_min":0,"x_max":926,"o":"m 926 0 l 628 0 l 263 557 l 263 0 l 0 0 l 0 1111 l 597 1111 q 722 1081 664 1111 q 821 1001 779 1051 q 887 885 863 951 q 911 747 911 819 q 899 626 911 679 q 860 532 886 574 q 793 459 833 490 q 699 403 753 428 q 693 399 696 401 q 685 393 690 396 l 926 0 m 661 738 q 631 818 661 783 q 556 853 600 853 l 261 853 l 261 624 l 567 624 q 602 635 585 624 q 633 663 619 646 q 653 699 646 679 q 661 738 661 719 z "},"s":{"ha":1000,"x_min":0,"x_max":915,"o":"m 915 349 q 893 205 915 269 q 830 94 871 140 q 730 24 789 49 q 597 0 671 0 l 0 0 l 0 250 l 554 250 q 633 273 603 250 q 663 335 663 296 q 635 391 663 367 q 554 421 607 415 q 529 419 544 419 q 493 419 514 419 l 378 419 q 247 428 300 419 q 156 453 193 436 q 93 499 118 471 q 47 568 68 528 q 0 767 0 653 q 22 907 0 843 q 85 1016 44 971 q 185 1086 126 1061 q 314 1111 243 1111 l 915 1111 l 792 850 l 344 853 q 250 767 250 853 q 278 705 250 729 q 344 681 307 681 l 597 681 q 915 349 915 681 z "},"t":{"ha":986,"x_min":0,"x_max":933,"o":"m 933 1111 l 806 854 l 563 854 l 563 0 l 297 0 l 297 854 l 0 854 l 0 1111 l 933 1111 z "},"u":{"ha":1025,"x_min":0,"x_max":914,"o":"m 914 1111 l 914 0 l 438 0 q 303 22 367 0 q 188 85 240 44 q 93 184 135 126 q 25 311 51 242 q 0 407 0 375 l 0 1111 l 261 1111 l 261 551 q 275 433 261 486 q 315 341 289 379 q 378 282 340 303 q 464 261 415 261 l 636 261 l 636 1111 l 914 1111 z "},"v":{"ha":1094,"x_min":0,"x_max":1018,"o":"m 1018 1111 l 649 0 l 371 0 l 0 1111 l 278 1111 l 510 417 l 740 1111 l 1018 1111 z "},"w":{"ha":1464,"x_min":0,"x_max":1389,"o":"m 1389 1111 l 1018 0 l 740 0 l 694 139 l 649 0 l 371 0 l 0 1111 l 278 1111 l 510 417 l 556 556 l 371 1111 l 649 1111 l 694 972 l 740 1111 l 1018 1111 l 833 556 l 879 417 l 1111 1111 l 1389 1111 z "},"x":{"ha":1115,"x_min":0,"x_max":1039,"o":"m 1039 0 l 739 0 l 526 319 l 319 0 l 0 0 l 369 556 l 0 1111 l 319 1111 l 526 792 l 739 1111 l 1039 1111 l 679 556 l 1039 0 z "},"y":{"ha":1094,"x_min":0,"x_max":1039,"o":"m 1039 1111 l 658 556 l 658 0 l 381 0 l 381 556 l 0 1111 l 319 1111 l 526 792 l 739 1111 l 1039 1111 z "},"z":{"ha":1107,"x_min":0,"x_max":1039,"o":"m 1039 1111 l 489 261 l 956 261 l 956 0 l 0 0 l 565 850 l 93 850 l 93 1111 l 1039 1111 z "},"|":{"ha":389,"x_min":0,"x_max":278,"o":"m 278 -67 l 0 -67 l 0 1199 l 278 1199 l 278 -67 z "},"¢":{"ha":1014,"x_min":0,"x_max":924,"o":"m 924 1111 l 796 850 l 740 850 l 740 261 l 922 261 l 922 0 l 740 0 l 740 -71 l 463 -71 l 463 0 q 329 22 419 0 q 217 72 271 35 q 121 160 164 108 q 49 276 78 213 q 13 406 21 339 q 0 550 0 501 q 33 769 0 668 q 127 943 67 869 q 273 1060 188 1017 q 463 1110 358 1104 l 463 1203 l 740 1203 l 740 1111 l 924 1111 m 463 850 l 442 850 q 399 838 422 850 q 356 808 376 826 q 319 767 335 789 q 297 725 303 744 q 272 617 272 635 q 463 261 272 272 l 463 850 z "},"А":{"ha":1093,"x_min":0,"x_max":1018,"o":"m 1018 0 l 740 0 l 674 201 l 494 201 l 407 386 l 278 0 l 0 0 l 371 1111 l 649 1111 l 1018 0 m 586 463 l 510 694 l 432 463 l 586 463 z "},"Б":{"ha":976,"x_min":0,"x_max":911,"o":"m 829 1111 l 704 850 l 278 850 l 278 578 l 371 719 l 685 718 q 693 713 690 715 q 699 708 696 710 q 793 652 753 683 q 860 579 833 621 q 899 485 886 538 q 911 364 911 432 q 887 226 911 292 q 821 110 863 160 q 722 30 779 60 q 597 0 664 0 l 0 0 l 0 1111 l 829 1111 m 661 374 q 653 412 661 392 q 633 449 646 432 q 602 476 619 465 q 567 488 585 488 l 278 488 l 278 258 l 556 258 q 631 293 600 258 q 661 374 661 328 z "},"В":{"ha":1040,"x_min":0,"x_max":939,"o":"m 939 299 q 916 174 939 229 q 853 81 893 119 q 755 21 813 42 q 629 0 697 0 l 0 0 l 0 1111 l 649 1111 q 642 1110 642 1111 q 663 1106 642 1110 q 710 1096 685 1101 q 755 1087 735 1090 q 772 1085 775 1083 q 835 1044 806 1069 q 888 985 865 1018 q 922 917 910 953 q 935 843 935 881 q 899 677 935 751 q 797 569 864 603 q 939 299 939 465 m 682 771 q 658 834 682 806 q 599 863 633 863 l 268 863 l 268 686 l 622 686 q 646 694 635 686 q 665 715 657 703 q 677 743 672 728 q 682 771 682 758 m 682 339 q 676 372 682 356 q 659 400 669 388 q 635 421 649 413 q 607 429 621 429 l 397 429 l 268 625 l 268 249 l 607 249 q 635 257 621 249 q 659 278 649 265 q 676 306 669 290 q 682 339 682 322 z "},"Г":{"ha":876,"x_min":0,"x_max":829,"o":"m 829 1111 l 704 850 l 278 850 l 278 0 l 0 0 l 0 1111 l 829 1111 z "},"Д":{"ha":1185,"x_min":36,"x_max":1131,"o":"m 1031 1114 l 1029 261 l 1131 261 l 1131 -268 l 853 -268 l 853 0 l 314 0 l 314 -268 l 36 -268 l 36 261 l 124 261 q 168 364 147 286 q 201 560 189 444 q 213 772 213 675 l 213 1111 l 1031 1114 m 504 696 q 481 450 504 581 q 426 261 461 335 l 751 261 l 751 853 l 504 853 l 504 696 z "},"Е":{"ha":879,"x_min":0,"x_max":824,"o":"m 824 1111 l 700 851 l 4 851 l 4 1111 l 824 1111 m 701 429 l 4 429 l 4 689 l 701 689 l 701 429 m 767 0 l 0 0 l 0 260 l 767 260 l 767 0 z "},"Ж":{"ha":1635,"x_min":1,"x_max":1622,"o":"m 356 554 l 1 1108 l 321 1108 l 657 554 l 300 0 l 1 0 l 356 554 m 1622 0 l 1324 0 l 967 554 l 1303 1108 l 1622 1108 l 1268 554 l 1622 0 m 943 1 l 681 1 l 681 1113 l 943 1113 l 943 1 z "},"З":{"ha":969,"x_min":3,"x_max":868,"o":"m 868 299 q 845 174 868 229 q 782 81 822 119 q 684 21 742 42 q 558 0 626 0 l 3 0 l 3 249 l 536 249 q 564 257 550 249 q 588 278 578 265 q 605 306 599 290 q 611 339 611 322 q 605 372 611 356 q 588 400 599 388 q 564 421 578 413 q 536 429 550 429 l 200 429 l 82 686 l 551 686 q 575 694 564 686 q 594 715 586 703 q 606 743 601 728 q 611 771 611 758 q 587 834 611 806 q 528 863 563 863 l 3 863 l 3 1111 l 578 1111 q 694 1088 642 1111 q 785 1028 747 1065 q 843 942 822 990 q 864 843 864 894 q 828 677 864 751 q 726 569 793 603 q 868 299 868 465 z "},"И":{"ha":1103,"x_min":0,"x_max":992,"o":"m 0 1111 l 274 1111 l 274 444 l 685 1111 l 992 1111 l 992 0 l 718 0 l 718 665 l 296 0 l 0 0 l 0 1111 z "},"Й":{"ha":1103,"x_min":0,"x_max":992,"o":"m 0 1111 l 238 1111 q 214 1239 214 1165 l 353 1239 q 457 1147 357 1150 q 539 1169 510 1147 q 578 1239 568 1190 l 718 1239 q 463 993 686 1003 q 289 1046 363 993 l 274 1058 l 274 444 l 685 1111 l 992 1111 l 992 0 l 718 0 l 718 665 l 296 0 l 0 0 l 0 1111 z "},"К":{"ha":1021,"x_min":1,"x_max":943,"o":"m 943 0 l 644 0 l 288 554 l 624 1108 l 943 1108 l 589 554 l 943 0 m 263 1 l 1 1 l 1 1113 l 263 1113 l 263 1 z "},"Л":{"ha":1063,"x_min":0,"x_max":1021,"o":"m 497 407 q 471 311 497 376 q 179 22 376 69 q 102 6 132 11 q 60 0 72 0 l 0 0 l 0 261 l 32 261 q 183 339 132 261 q 235 551 235 417 l 235 1111 l 1021 1111 l 1021 0 l 743 0 l 743 850 l 497 850 l 497 407 z "},"М":{"ha":1315,"x_min":0,"x_max":1204,"o":"m 1204 0 l 926 0 l 926 556 l 740 0 l 463 0 l 278 556 l 278 0 l 0 0 l 0 1111 l 371 1111 l 601 417 l 833 1111 l 1204 1111 l 1204 0 z "},"Н":{"ha":990,"x_min":0,"x_max":879,"o":"m 879 0 l 618 0 l 618 604 l 510 426 l 254 426 l 254 0 l 0 0 l 0 1111 l 258 1111 l 258 685 l 619 685 l 619 1111 l 879 1111 l 879 0 z "},"О":{"ha":1100,"x_min":0,"x_max":1004,"o":"m 1004 557 q 969 334 1004 436 q 867 158 933 232 q 710 42 801 83 q 506 0 618 0 q 300 40 393 0 q 140 154 207 81 q 37 329 74 228 q 0 554 0 431 q 38 778 0 676 q 142 954 75 881 q 304 1069 210 1028 q 511 1111 399 1111 q 713 1069 622 1111 q 869 953 804 1028 q 969 778 933 879 q 1004 557 1004 676 m 760 554 q 742 674 760 618 q 690 772 724 731 q 611 838 657 814 q 510 863 565 863 q 406 840 453 863 q 327 775 360 817 q 277 676 294 733 q 260 550 260 618 q 278 429 260 485 q 328 333 296 374 q 406 268 361 292 q 506 244 451 244 q 608 269 561 244 q 689 335 656 293 q 741 433 722 376 q 760 554 760 489 z "},"П":{"ha":990,"x_min":0,"x_max":879,"o":"m 879 0 l 618 0 l 618 1079 l 510 901 l 254 901 l 254 0 l 0 0 l 0 1111 l 879 1111 l 879 0 z "},"Р":{"ha":976,"x_min":0,"x_max":911,"o":"m 911 747 q 899 626 911 679 q 860 532 886 574 q 793 459 833 490 q 699 403 753 428 q 693 399 696 401 q 685 393 690 396 l 371 392 l 263 557 l 263 0 l 0 0 l 0 1111 l 597 1111 q 722 1081 664 1111 q 821 1001 779 1051 q 887 885 863 951 q 911 747 911 819 m 661 738 q 631 818 661 783 q 556 853 600 853 l 261 853 l 261 624 l 567 624 q 602 635 585 624 q 633 663 619 646 q 653 699 646 679 q 661 738 661 719 z "},"С":{"ha":971,"x_min":0,"x_max":924,"o":"m 924 1111 l 796 850 l 442 850 q 399 838 422 850 q 356 808 376 826 q 319 767 335 789 q 297 725 303 744 q 272 617 272 638 q 475 261 272 261 l 922 261 l 922 0 l 449 0 q 406 6 436 0 q 329 22 376 11 q 217 72 271 35 q 122 162 164 110 q 50 277 79 214 q 13 406 21 340 q 0 550 0 501 q 35 778 0 675 q 135 956 71 882 q 290 1070 200 1029 q 492 1111 381 1111 l 924 1111 z "},"Т":{"ha":986,"x_min":0,"x_max":933,"o":"m 933 1111 l 806 854 l 563 854 l 563 0 l 297 0 l 297 854 l 0 854 l 0 1111 l 933 1111 z "},"У":{"ha":944,"x_min":-17,"x_max":944,"o":"m 347 307 q 258 505 304 403 q 166 710 213 607 q 73 915 119 813 q -17 1111 26 1017 l 265 1111 l 451 631 l 457 611 l 461 597 q 469 617 465 608 q 476 636 472 626 l 475 633 l 668 1111 l 944 1111 l 528 203 q 476 103 500 144 q 433 39 451 63 q 292 -14 388 -14 q 183 7 225 -14 l 183 213 l 250 201 l 269 201 q 324 253 308 201 l 347 307 z "},"Ф":{"ha":1221,"x_min":0,"x_max":1200,"o":"m 461 301 l 368 160 l 226 161 q 218 167 221 164 q 213 171 215 169 q 118 227 158 196 q 51 300 78 258 q 13 394 25 342 q 0 610 0 447 q 24 748 0 682 q 90 864 49 814 q 190 944 132 914 q 314 974 247 974 l 461 974 l 461 1111 l 739 1111 l 739 974 l 886 974 q 1010 944 953 974 q 1110 864 1068 914 q 1176 748 1151 814 q 1200 610 1200 682 q 1188 394 1200 447 q 1149 300 1175 342 q 1082 227 1122 258 q 988 171 1042 196 q 982 167 985 169 q 974 161 979 164 l 832 160 l 739 301 l 739 0 l 461 0 l 461 301 m 250 600 q 258 467 250 488 q 278 431 265 447 q 309 403 292 414 q 344 392 326 392 l 461 392 l 461 715 l 356 715 q 281 681 311 715 q 250 600 250 646 m 950 600 q 919 681 950 646 q 844 715 889 715 l 739 715 l 739 392 l 856 392 q 891 403 874 392 q 922 431 908 414 q 942 467 935 447 q 950 600 950 488 z "},"Х":{"ha":1115,"x_min":0,"x_max":1039,"o":"m 1039 0 l 739 0 l 526 319 l 319 0 l 0 0 l 369 556 l 0 1111 l 319 1111 l 526 792 l 739 1111 l 1039 1111 l 679 556 l 1039 0 z "},"Ц":{"ha":1043,"x_min":0,"x_max":982,"o":"m 881 261 l 982 261 l 982 -268 l 704 -268 l 704 0 l 0 0 l 0 1111 l 254 1111 l 254 210 l 510 210 l 618 32 l 618 1111 l 879 1111 l 879 258 l 881 261 z "},"Ч":{"ha":1025,"x_min":0,"x_max":914,"o":"m 638 349 l 438 349 q 303 371 367 349 q 188 434 240 393 q 93 533 135 475 q 25 660 51 590 q 0 756 0 724 l 0 1111 l 261 1111 l 261 900 q 275 781 261 835 q 315 690 289 728 q 378 631 340 651 q 464 610 415 610 l 636 610 l 636 1111 l 914 1111 l 914 0 l 638 0 l 638 349 z "},"Ш":{"ha":1606,"x_min":0,"x_max":1497,"o":"m 0 1111 l 254 1111 l 254 210 l 618 210 l 618 1111 l 879 1111 l 879 210 l 1243 210 l 1243 1111 l 1497 1111 l 1497 0 l 0 0 l 0 1111 z "},"Щ":{"ha":1654,"x_min":0,"x_max":1575,"o":"m 0 1111 l 254 1111 l 254 210 l 618 210 l 618 1111 l 879 1111 l 879 210 l 1243 210 l 1243 1111 l 1497 1111 l 1497 211 l 1575 211 l 1575 -187 l 1340 -187 l 1340 0 l 0 0 l 0 1111 z "},"Ь":{"ha":976,"x_min":0,"x_max":911,"o":"m 661 374 q 653 412 661 392 q 633 449 646 432 q 602 476 619 465 q 567 488 585 488 l 261 488 l 261 258 l 556 258 q 631 293 600 258 q 661 374 661 328 m 911 364 q 887 226 911 292 q 821 110 863 160 q 722 30 779 60 q 597 0 664 0 l 0 0 l 0 1111 l 263 1111 l 263 554 l 371 719 l 685 718 q 693 713 690 715 q 699 708 696 710 q 793 652 753 683 q 860 579 833 621 q 899 485 886 538 q 911 364 911 432 z "},"Я":{"ha":1026,"x_min":0,"x_max":926,"o":"m 265 738 q 273 699 265 719 q 294 663 281 679 q 324 635 307 646 q 360 624 342 624 l 665 624 l 665 853 l 371 853 q 296 818 326 853 q 265 738 265 783 m 242 393 q 233 399 236 396 q 228 403 231 401 q 133 459 174 428 q 67 532 93 490 q 28 626 40 574 q 15 747 15 679 q 40 885 15 819 q 106 1001 64 951 q 205 1081 147 1051 q 329 1111 263 1111 l 926 1111 l 926 0 l 664 0 l 664 557 l 299 0 l 0 0 l 242 393 z "},"Э":{"ha":971,"x_min":0,"x_max":924,"o":"m 432 1111 q 633 1070 543 1111 q 788 956 724 1029 q 888 778 853 882 q 924 550 924 675 q 911 406 924 501 q 874 277 903 340 q 802 162 844 214 q 706 72 760 110 q 594 22 653 35 q 517 6 547 11 q 475 0 488 0 l 1 0 l 1 261 l 449 261 q 631 429 588 261 l 4 429 l 4 689 l 636 689 q 626 725 632 706 q 605 767 621 744 q 568 808 589 789 q 524 838 547 826 q 482 850 501 850 l 128 850 l 0 1111 l 432 1111 z "},"Ы":{"ha":1315,"x_min":0,"x_max":1253,"o":"m 661 374 q 653 412 661 392 q 633 449 646 432 q 602 476 619 465 q 567 488 585 488 l 261 488 l 261 258 l 556 258 q 631 293 600 258 q 661 374 661 328 m 911 364 q 887 226 911 292 q 821 110 863 160 q 722 30 779 60 q 597 0 664 0 l 0 0 l 0 1111 l 263 1111 l 263 554 l 371 719 l 685 718 q 693 713 690 715 q 699 708 696 710 q 793 652 753 683 q 860 579 833 621 q 899 485 886 538 q 911 364 911 432 m 1253 0 l 975 0 l 975 1111 l 1253 1111 l 1253 0 z "},"Ъ":{"ha":1276,"x_min":36,"x_max":1211,"o":"m 36 1111 l 563 1111 l 563 554 l 671 719 l 985 718 q 993 713 990 715 q 999 708 996 710 q 1093 652 1053 683 q 1160 579 1133 621 q 1199 485 1186 538 q 1211 364 1211 432 q 1187 226 1211 292 q 1121 110 1163 160 q 1022 30 1079 60 q 897 0 964 0 l 300 0 l 300 910 l 36 910 l 36 1111 m 961 374 q 933 449 946 432 q 902 476 919 465 q 867 488 885 488 l 561 488 l 561 258 l 856 258 q 931 293 900 258 q 961 374 961 328 z "},"Ю":{"ha":1485,"x_min":0,"x_max":1442,"o":"m 1442 557 q 1406 334 1442 436 q 1305 158 1371 232 q 1147 42 1239 83 q 943 0 1056 0 q 738 40 831 0 q 578 154 644 81 q 474 329 511 228 q 447 426 457 375 l 254 426 l 254 0 l 0 0 l 0 1111 l 258 1111 l 258 685 l 449 685 q 475 778 458 733 q 580 954 513 881 q 742 1069 647 1028 q 949 1111 836 1111 q 1151 1069 1060 1111 q 1306 953 1242 1028 q 1406 778 1371 879 q 1442 557 1442 676 m 1197 554 q 1179 674 1197 618 q 1128 772 1161 731 q 1049 838 1094 814 q 947 863 1003 863 q 844 840 890 863 q 765 775 797 817 q 715 676 732 733 q 697 550 697 618 q 715 429 697 485 q 766 333 733 374 q 844 268 799 292 q 943 244 889 244 q 1046 269 999 244 q 1126 335 1093 293 q 1178 433 1160 376 q 1197 554 1197 489 z "},"б":{"ha":976,"x_min":0,"x_max":911,"o":"m 829 1111 l 704 850 l 278 850 l 278 578 l 371 719 l 685 718 q 693 713 690 715 q 699 708 696 710 q 793 652 753 683 q 860 579 833 621 q 899 485 886 538 q 911 364 911 432 q 887 226 911 292 q 821 110 863 160 q 722 30 779 60 q 597 0 664 0 l 0 0 l 0 1111 l 829 1111 m 661 374 q 653 412 661 392 q 633 449 646 432 q 602 476 619 465 q 567 488 585 488 l 278 488 l 278 258 l 556 258 q 631 293 600 258 q 661 374 661 328 z "},"в":{"ha":1040,"x_min":0,"x_max":939,"o":"m 939 299 q 916 174 939 229 q 853 81 893 119 q 755 21 813 42 q 629 0 697 0 l 0 0 l 0 1111 l 649 1111 q 642 1110 642 1111 q 663 1106 642 1110 q 710 1096 685 1101 q 755 1087 735 1090 q 772 1085 775 1083 q 835 1044 806 1069 q 888 985 865 1018 q 922 917 910 953 q 935 843 935 881 q 899 677 935 751 q 797 569 864 603 q 939 299 939 465 m 682 771 q 658 834 682 806 q 599 863 633 863 l 268 863 l 268 686 l 622 686 q 646 694 635 686 q 665 715 657 703 q 677 743 672 728 q 682 771 682 758 m 682 339 q 676 372 682 356 q 659 400 669 388 q 635 421 649 413 q 607 429 621 429 l 397 429 l 268 625 l 268 249 l 607 249 q 635 257 621 249 q 659 278 649 265 q 676 306 669 290 q 682 339 682 322 z "},"г":{"ha":876,"x_min":0,"x_max":829,"o":"m 829 1111 l 704 850 l 278 850 l 278 0 l 0 0 l 0 1111 l 829 1111 z "},"д":{"ha":1185,"x_min":36,"x_max":1131,"o":"m 1031 1114 l 1029 261 l 1131 261 l 1131 -268 l 853 -268 l 853 0 l 314 0 l 314 -268 l 36 -268 l 36 261 l 124 261 q 168 364 147 286 q 201 560 189 444 q 213 772 213 675 l 213 1111 l 1031 1114 m 504 696 q 481 450 504 581 q 426 261 461 335 l 751 261 l 751 853 l 504 853 l 504 696 z "},"ж":{"ha":1635,"x_min":1,"x_max":1622,"o":"m 356 554 l 1 1108 l 321 1108 l 657 554 l 300 0 l 1 0 l 356 554 m 1622 0 l 1324 0 l 967 554 l 1303 1108 l 1622 1108 l 1268 554 l 1622 0 m 943 1 l 681 1 l 681 1113 l 943 1113 l 943 1 z "},"з":{"ha":969,"x_min":3,"x_max":868,"o":"m 868 299 q 845 174 868 229 q 782 81 822 119 q 684 21 742 42 q 558 0 626 0 l 3 0 l 3 249 l 536 249 q 564 257 550 249 q 588 278 578 265 q 605 306 599 290 q 611 339 611 322 q 605 372 611 356 q 588 400 599 388 q 564 421 578 413 q 536 429 550 429 l 200 429 l 82 686 l 551 686 q 575 694 564 686 q 594 715 586 703 q 606 743 601 728 q 611 771 611 758 q 587 834 611 806 q 528 863 563 863 l 3 863 l 3 1111 l 578 1111 q 694 1088 642 1111 q 785 1028 747 1065 q 843 942 822 990 q 864 843 864 894 q 828 677 864 751 q 726 569 793 603 q 868 299 868 465 z "},"и":{"ha":1103,"x_min":0,"x_max":992,"o":"m 0 1111 l 274 1111 l 274 444 l 685 1111 l 992 1111 l 992 0 l 718 0 l 718 665 l 296 0 l 0 0 l 0 1111 z "},"й":{"ha":1103,"x_min":0,"x_max":992,"o":"m 0 1111 l 238 1111 q 214 1239 214 1165 l 353 1239 q 457 1147 357 1150 q 539 1169 510 1147 q 578 1239 568 1190 l 718 1239 q 463 993 686 1003 q 289 1046 363 993 l 274 1058 l 274 444 l 685 1111 l 992 1111 l 992 0 l 718 0 l 718 665 l 296 0 l 0 0 l 0 1111 z "},"к":{"ha":1021,"x_min":1,"x_max":943,"o":"m 943 0 l 644 0 l 288 554 l 624 1108 l 943 1108 l 589 554 l 943 0 m 263 1 l 1 1 l 1 1113 l 263 1113 l 263 1 z "},"л":{"ha":1063,"x_min":0,"x_max":1021,"o":"m 497 407 q 471 311 497 376 q 179 22 376 69 q 102 6 132 11 q 60 0 72 0 l 0 0 l 0 261 l 32 261 q 183 339 132 261 q 235 551 235 417 l 235 1111 l 1021 1111 l 1021 0 l 743 0 l 743 850 l 497 850 l 497 407 z "},"н":{"ha":990,"x_min":0,"x_max":879,"o":"m 879 0 l 618 0 l 618 604 l 510 426 l 254 426 l 254 0 l 0 0 l 0 1111 l 258 1111 l 258 685 l 619 685 l 619 1111 l 879 1111 l 879 0 z "},"о":{"ha":1100,"x_min":0,"x_max":1004,"o":"m 1004 557 q 969 334 1004 436 q 867 158 933 232 q 710 42 801 83 q 506 0 618 0 q 300 40 393 0 q 140 154 207 81 q 37 329 74 228 q 0 554 0 431 q 38 778 0 676 q 142 954 75 881 q 304 1069 210 1028 q 511 1111 399 1111 q 713 1069 622 1111 q 869 953 804 1028 q 969 778 933 879 q 1004 557 1004 676 m 760 554 q 742 674 760 618 q 690 772 724 731 q 611 838 657 814 q 510 863 565 863 q 406 840 453 863 q 327 775 360 817 q 277 676 294 733 q 260 550 260 618 q 278 429 260 485 q 328 333 296 374 q 406 268 361 292 q 506 244 451 244 q 608 269 561 244 q 689 335 656 293 q 741 433 722 376 q 760 554 760 489 z "},"п":{"ha":990,"x_min":0,"x_max":879,"o":"m 879 0 l 618 0 l 618 1079 l 510 901 l 254 901 l 254 0 l 0 0 l 0 1111 l 879 1111 l 879 0 z "},"р":{"ha":976,"x_min":0,"x_max":911,"o":"m 911 747 q 899 626 911 679 q 860 532 886 574 q 793 459 833 490 q 699 403 753 428 q 693 399 696 401 q 685 393 690 396 l 371 392 l 263 557 l 263 0 l 0 0 l 0 1111 l 597 1111 q 722 1081 664 1111 q 821 1001 779 1051 q 887 885 863 951 q 911 747 911 819 m 661 738 q 631 818 661 783 q 556 853 600 853 l 261 853 l 261 624 l 567 624 q 602 635 585 624 q 633 663 619 646 q 653 699 646 679 q 661 738 661 719 z "},"с":{"ha":971,"x_min":0,"x_max":924,"o":"m 924 1111 l 796 850 l 442 850 q 399 838 422 850 q 356 808 376 826 q 319 767 335 789 q 297 725 303 744 q 272 617 272 638 q 475 261 272 261 l 922 261 l 922 0 l 449 0 q 406 6 436 0 q 329 22 376 11 q 217 72 271 35 q 122 162 164 110 q 50 277 79 214 q 13 406 21 340 q 0 550 0 501 q 35 778 0 675 q 135 956 71 882 q 290 1070 200 1029 q 492 1111 381 1111 l 924 1111 z "},"т":{"ha":986,"x_min":0,"x_max":933,"o":"m 933 1111 l 806 854 l 563 854 l 563 0 l 297 0 l 297 854 l 0 854 l 0 1111 l 933 1111 z "},"у":{"ha":944,"x_min":-17,"x_max":944,"o":"m 347 307 q 258 505 304 403 q 166 710 213 607 q 73 915 119 813 q -17 1111 26 1017 l 265 1111 l 451 631 l 457 611 l 461 597 q 469 617 465 608 q 476 636 472 626 l 475 633 l 668 1111 l 944 1111 l 528 203 q 476 103 500 144 q 433 39 451 63 q 292 -14 388 -14 q 183 7 225 -14 l 183 213 l 250 201 l 269 201 q 324 253 308 201 l 347 307 z "},"ф":{"ha":1221,"x_min":0,"x_max":1200,"o":"m 461 301 l 368 160 l 226 161 q 218 167 221 164 q 213 171 215 169 q 118 227 158 196 q 51 300 78 258 q 13 394 25 342 q 0 610 0 447 q 24 748 0 682 q 90 864 49 814 q 190 944 132 914 q 314 974 247 974 l 461 974 l 461 1111 l 739 1111 l 739 974 l 886 974 q 1010 944 953 974 q 1110 864 1068 914 q 1176 748 1151 814 q 1200 610 1200 682 q 1188 394 1200 447 q 1149 300 1175 342 q 1082 227 1122 258 q 988 171 1042 196 q 982 167 985 169 q 974 161 979 164 l 832 160 l 739 301 l 739 0 l 461 0 l 461 301 m 250 600 q 258 467 250 488 q 278 431 265 447 q 309 403 292 414 q 344 392 326 392 l 461 392 l 461 715 l 356 715 q 281 681 311 715 q 250 600 250 646 m 950 600 q 919 681 950 646 q 844 715 889 715 l 739 715 l 739 392 l 856 392 q 891 403 874 392 q 922 431 908 414 q 942 467 935 447 q 950 600 950 488 z "},"х":{"ha":1115,"x_min":0,"x_max":1039,"o":"m 1039 0 l 739 0 l 526 319 l 319 0 l 0 0 l 369 556 l 0 1111 l 319 1111 l 526 792 l 739 1111 l 1039 1111 l 679 556 l 1039 0 z "},"ц":{"ha":1043,"x_min":0,"x_max":982,"o":"m 881 261 l 982 261 l 982 -268 l 704 -268 l 704 0 l 0 0 l 0 1111 l 254 1111 l 254 210 l 510 210 l 618 32 l 618 1111 l 879 1111 l 879 258 l 881 261 z "},"ч":{"ha":1025,"x_min":0,"x_max":914,"o":"m 638 349 l 438 349 q 303 371 367 349 q 188 434 240 393 q 93 533 135 475 q 25 660 51 590 q 0 756 0 724 l 0 1111 l 261 1111 l 261 900 q 275 781 261 835 q 315 690 289 728 q 378 631 340 651 q 464 610 415 610 l 636 610 l 636 1111 l 914 1111 l 914 0 l 638 0 l 638 349 z "},"ш":{"ha":1606,"x_min":0,"x_max":1497,"o":"m 0 1111 l 254 1111 l 254 210 l 618 210 l 618 1111 l 879 1111 l 879 210 l 1243 210 l 1243 1111 l 1497 1111 l 1497 0 l 0 0 l 0 1111 z "},"щ":{"ha":1654,"x_min":0,"x_max":1575,"o":"m 0 1111 l 254 1111 l 254 210 l 618 210 l 618 1111 l 879 1111 l 879 210 l 1243 210 l 1243 1111 l 1497 1111 l 1497 211 l 1575 211 l 1575 -187 l 1340 -187 l 1340 0 l 0 0 l 0 1111 z "},"ъ":{"ha":1276,"x_min":36,"x_max":1211,"o":"m 36 1111 l 563 1111 l 563 554 l 671 719 l 985 718 q 993 713 990 715 q 999 708 996 710 q 1093 652 1053 683 q 1160 579 1133 621 q 1199 485 1186 538 q 1211 364 1211 432 q 1187 226 1211 292 q 1121 110 1163 160 q 1022 30 1079 60 q 897 0 964 0 l 300 0 l 300 910 l 36 910 l 36 1111 m 961 374 q 933 449 946 432 q 902 476 919 465 q 867 488 885 488 l 561 488 l 561 258 l 856 258 q 931 293 900 258 q 961 374 961 328 z "},"ы":{"ha":1315,"x_min":0,"x_max":1253,"o":"m 661 374 q 653 412 661 392 q 633 449 646 432 q 602 476 619 465 q 567 488 585 488 l 261 488 l 261 258 l 556 258 q 631 293 600 258 q 661 374 661 328 m 911 364 q 887 226 911 292 q 821 110 863 160 q 722 30 779 60 q 597 0 664 0 l 0 0 l 0 1111 l 263 1111 l 263 554 l 371 719 l 685 718 q 693 713 690 715 q 699 708 696 710 q 793 652 753 683 q 860 579 833 621 q 899 485 886 538 q 911 364 911 432 m 1253 0 l 975 0 l 975 1111 l 1253 1111 l 1253 0 z "},"ь":{"ha":976,"x_min":0,"x_max":911,"o":"m 661 374 q 653 412 661 392 q 633 449 646 432 q 602 476 619 465 q 567 488 585 488 l 261 488 l 261 258 l 556 258 q 631 293 600 258 q 661 374 661 328 m 911 364 q 887 226 911 292 q 821 110 863 160 q 722 30 779 60 q 597 0 664 0 l 0 0 l 0 1111 l 263 1111 l 263 554 l 371 719 l 685 718 q 693 713 690 715 q 699 708 696 710 q 793 652 753 683 q 860 579 833 621 q 899 485 886 538 q 911 364 911 432 z "},"э":{"ha":971,"x_min":0,"x_max":924,"o":"m 432 1111 q 633 1070 543 1111 q 788 956 724 1029 q 888 778 853 882 q 924 550 924 675 q 911 406 924 501 q 874 277 903 340 q 802 162 844 214 q 706 72 760 110 q 594 22 653 35 q 517 6 547 11 q 475 0 488 0 l 1 0 l 1 261 l 449 261 q 631 429 588 261 l 4 429 l 4 689 l 636 689 q 626 725 632 706 q 605 767 621 744 q 568 808 589 789 q 524 838 547 826 q 482 850 501 850 l 128 850 l 0 1111 l 432 1111 z "},"ю":{"ha":1485,"x_min":0,"x_max":1442,"o":"m 1442 557 q 1406 334 1442 436 q 1305 158 1371 232 q 1147 42 1239 83 q 943 0 1056 0 q 738 40 831 0 q 578 154 644 81 q 474 329 511 228 q 447 426 457 375 l 254 426 l 254 0 l 0 0 l 0 1111 l 258 1111 l 258 685 l 449 685 q 475 778 458 733 q 580 954 513 881 q 742 1069 647 1028 q 949 1111 836 1111 q 1151 1069 1060 1111 q 1306 953 1242 1028 q 1406 778 1371 879 q 1442 557 1442 676 m 1197 554 q 1179 674 1197 618 q 1128 772 1161 731 q 1049 838 1094 814 q 947 863 1003 863 q 844 840 890 863 q 765 775 797 817 q 715 676 732 733 q 697 550 697 618 q 715 429 697 485 q 766 333 733 374 q 844 268 799 292 q 943 244 889 244 q 1046 269 999 244 q 1126 335 1093 293 q 1178 433 1160 376 q 1197 554 1197 489 z "},"я":{"ha":1026,"x_min":0,"x_max":926,"o":"m 265 738 q 273 699 265 719 q 294 663 281 679 q 324 635 307 646 q 360 624 342 624 l 665 624 l 665 853 l 371 853 q 296 818 326 853 q 265 738 265 783 m 242 393 q 233 399 236 396 q 228 403 231 401 q 133 459 174 428 q 67 532 93 490 q 28 626 40 574 q 15 747 15 679 q 40 885 15 819 q 106 1001 64 951 q 205 1081 147 1051 q 329 1111 263 1111 l 926 1111 l 926 0 l 664 0 l 664 557 l 299 0 l 0 0 l 242 393 z "},"а":{"ha":1038,"x_min":0,"x_max":926,"o":"m 926 0 l 478 0 l 383 194 l 278 0 l 0 0 l 600 1111 l 926 1111 l 926 0 m 649 254 l 649 686 l 415 254 l 649 254 z "},"е":{"ha":894,"x_min":0,"x_max":824,"o":"m 824 1111 l 700 851 l 276 851 l 276 689 l 701 689 l 701 429 l 276 429 l 276 260 l 767 260 l 767 0 l 0 0 l 0 1111 l 824 1111 z "},"м":{"ha":1500,"x_min":0,"x_max":1389,"o":"m 1389 0 l 1111 0 l 1111 833 l 833 0 l 556 0 l 278 833 l 278 0 l 0 0 l 0 1111 l 463 1111 l 694 417 l 926 1111 l 1389 1111 l 1389 0 z "},"Ё":{"ha":879,"x_min":0,"x_max":824,"o":"m 154 1111 l 154 1154 l 346 1154 l 346 1111 l 496 1111 l 496 1154 l 685 1154 l 685 1111 l 824 1111 l 700 851 l 4 851 l 4 1111 l 154 1111 m 767 0 l 0 0 l 0 260 l 767 260 l 767 0 m 701 429 l 4 429 l 4 689 l 701 689 l 701 429 z "},"ё":{"ha":894,"x_min":0,"x_max":824,"o":"m 154 1111 l 154 1154 l 346 1154 l 346 1111 l 496 1111 l 496 1154 l 685 1154 l 685 1111 l 824 1111 l 700 851 l 276 851 l 276 689 l 701 689 l 701 429 l 276 429 l 276 260 l 767 260 l 767 0 l 0 0 l 0 1111 l 154 1111 z "}}}
